<svg xmlns="http://www.w3.org/2000/svg" viewBox="0 0 640 400" width="640" height="400" role="img" aria-labelledby="t">
  <title id="t">A family planning their savings at home</title>
  <rect width="640" height="400" rx="24" fill="#e6f2ee"/>
  <circle cx="540" cy="80" r="44" fill="#ffd200"/>
  <path d="M120 250 L240 150 L360 250 Z" fill="#006a4d"/>
  <rect x="145" y="250" width="190" height="110" fill="#ffffff"/>
  <rect x="220" y="290" width="40" height="70" fill="#006a4d"/>
  <rect x="165" y="270" width="36" height="30" fill="#bfe0d5"/>
  <rect x="280" y="270" width="36" height="30" fill="#bfe0d5"/>
  <g fill="#1a1a1a">
    <circle cx="430" cy="230" r="20"/><rect x="410" y="255" width="40" height="80" rx="16"/>
    <circle cx="490" cy="245" r="16"/><rect x="474" y="265" width="32" height="70" rx="14"/>
    <circle cx="540" cy="275" r="11"/><rect x="529" y="290" width="22" height="45" rx="10"/>
  </g>
  <g fill="#ffd200" stroke="#b38f00" stroke-width="2">
    <ellipse cx="590" cy="345" rx="26" ry="8"/><ellipse cx="590" cy="333" rx="26" ry="8"/><ellipse cx="590" cy="321" rx="26" ry="8"/>
  </g>
  <rect x="40" y="360" width="560" height="4" rx="2" fill="#006a4d" opacity=".3"/>
</svg>
